<svg xmlns="http://www.w3.org/2000/svg" xmlns:xlink="http://www.w3.org/1999/xlink" width="500" zoomAndPan="magnify" viewBox="0 0 375 374.999991" height="500" preserveAspectRatio="xMidYMid meet" version="1.0"><defs><g/><clipPath id="5a1e86cf0d"><path d="M 187.5 0 C 83.945312 0 0 83.945312 0 187.5 C 0 291.054688 83.945312 375 187.5 375 C 291.054688 375 375 291.054688 375 187.5 C 375 83.945312 291.054688 0 187.5 0 Z M 187.5 0 " clip-rule="nonzero"/></clipPath><clipPath id="62b5574092"><path d="M 0 0 L 375 0 L 375 375 L 0 375 Z M 0 0 " clip-rule="nonzero"/></clipPath><clipPath id="1126842eb4"><path d="M 187.5 0 C 83.945312 0 0 83.945312 0 187.5 C 0 291.054688 83.945312 375 187.5 375 C 291.054688 375 375 291.054688 375 187.5 C 375 83.945312 291.054688 0 187.5 0 Z M 187.5 0 " clip-rule="nonzero"/></clipPath><clipPath id="c35da221e0"><rect x="0" width="375" y="0" height="375"/></clipPath><clipPath id="1b0d9e9ff3"><path d="M 13 24.777344 L 351 24.777344 L 351 350.277344 L 13 350.277344 Z M 13 24.777344 " clip-rule="nonzero"/></clipPath><clipPath id="265d4f6b6a"><rect x="0" width="313" y="0" height="303"/></clipPath></defs><g clip-path="url(#5a1e86cf0d)"><g transform="matrix(1, 0, 0, 1, 0, 0)"><g clip-path="url(#c35da221e0)"><g clip-path="url(#62b5574092)"><g clip-path="url(#1126842eb4)"><rect x="-82.5" width="540" fill="#debc43" height="539.999987" y="-82.499998" fill-opacity="1"/></g></g></g></g></g><g clip-path="url(#1b0d9e9ff3)"><path fill="#ffffff" d="M 302.875 73.113281 C 273.605469 43.847656 233.15625 25.734375 188.492188 25.734375 C 143.828125 25.734375 103.378906 43.839844 74.113281 73.113281 C 58.582031 88.644531 46.203125 107.3125 37.996094 128.085938 C 58.011719 88.269531 73.671875 105.199219 73.671875 105.199219 C 54.628906 101.5625 42.476562 119.785156 37.933594 128.261719 C 34.007812 138.234375 31.046875 148.6875 29.160156 159.507812 C 31.296875 153.445312 37.453125 139.96875 51.175781 135.339844 C 69.105469 129.285156 55.917969 134.933594 44.113281 144.808594 C 34.828125 152.582031 30.320312 159.089844 28.816406 161.515625 C 27.488281 169.742188 26.777344 178.171875 26.738281 186.769531 C 27.710938 178.507812 31.253906 163.003906 44.179688 161.203125 C 61.347656 158.8125 31.726562 171.597656 26.761719 190.160156 C 27.464844 233.777344 45.425781 273.203125 74.121094 301.886719 C 103.386719 331.15625 143.828125 349.269531 188.5 349.269531 C 233.171875 349.269531 273.613281 331.164062 302.882812 301.886719 C 332.152344 272.617188 350.265625 232.167969 350.265625 187.503906 C 350.265625 142.839844 332.144531 102.390625 302.875 73.113281 M 28.96875 155.789062 C 27.015625 149.734375 12.8125 145.992188 20.324219 141.394531 C 27.015625 137.292969 29.097656 149.015625 29.582031 152.835938 C 29.800781 151.847656 30.023438 150.863281 30.253906 149.886719 C 31.464844 138.691406 31.632812 117.492188 18.316406 104.976562 C 18.316406 104.976562 39.371094 100.289062 33.199219 139.113281 C 36.292969 129.183594 40.308594 119.65625 45.152344 110.644531 C 48.128906 103.183594 52.0625 91.019531 56.820312 81.296875 C 55.894531 80.464844 53.238281 77.3125 54.015625 68.933594 C 53.429688 68.675781 53.054688 68.070312 53.128906 67.398438 C 53.488281 64.222656 55.117188 60.265625 55.125 60.246094 C 55.421875 59.480469 56.277344 59.097656 57.046875 59.390625 C 57.8125 59.6875 58.199219 60.542969 57.902344 61.3125 C 57.902344 61.320312 56.40625 64.957031 56.085938 67.726562 C 56.015625 68.40625 55.496094 68.925781 54.847656 69.035156 C 54.132812 76.648438 56.292969 79.617188 57.207031 80.511719 C 58.804688 77.320312 60.5 74.425781 62.277344 72.082031 C 62.292969 72.066406 66.898438 66.054688 69.992188 61.320312 C 69.585938 60.304688 68.089844 55.738281 70.394531 48.722656 C 70.167969 48.476562 70.074219 48.125 70.175781 47.78125 C 70.777344 45.71875 72.304688 43.269531 72.3125 43.261719 C 72.59375 42.78125 73.207031 42.628906 73.679688 42.910156 C 74.160156 43.191406 74.3125 43.804688 74.03125 44.277344 C 74.03125 44.285156 72.625 46.523438 72.105469 48.324219 C 71.984375 48.757812 71.59375 49.035156 71.175781 49.050781 C 69.28125 54.882812 70.097656 58.878906 70.585938 60.449219 C 73.816406 55.839844 79.230469 51.25 79.246094 51.242188 L 79.515625 51.5625 L 79.789062 51.882812 C 79.773438 51.898438 73.894531 56.875 70.824219 61.589844 C 68.832031 64.644531 66.179688 68.285156 64.515625 70.507812 C 67.128906 68.742188 71.609375 65.8125 74.894531 64.222656 C 74.925781 63.917969 75.085938 63.640625 75.367188 63.460938 C 76.957031 62.480469 78.742188 60.527344 78.75 60.519531 C 79.132812 60.121094 79.765625 60.113281 80.164062 60.488281 C 80.566406 60.871094 80.574219 61.503906 80.195312 61.902344 C 80.1875 61.910156 78.246094 64.039062 76.421875 65.175781 C 76.015625 65.421875 75.503906 65.351562 75.183594 65.023438 C 70.59375 67.261719 63.699219 72.082031 62.929688 72.621094 L 57.734375 81.367188 L 48.265625 105.085938 C 55.285156 93.171875 63.777344 82.222656 73.496094 72.507812 C 102.925781 43.078125 143.574219 24.878906 188.476562 24.878906 C 233.378906 24.878906 274.039062 43.078125 303.457031 72.507812 C 332.886719 101.9375 351.089844 142.585938 351.089844 187.488281 C 351.089844 232.390625 332.886719 273.050781 303.457031 302.472656 C 274.03125 331.898438 233.378906 350.101562 188.476562 350.101562 C 143.574219 350.101562 102.925781 331.898438 73.496094 302.472656 C 44.066406 273.042969 25.863281 232.390625 25.863281 187.488281 C 25.863281 183.769531 25.992188 180.074219 26.242188 176.414062 C 26.167969 175.773438 24.625 162.21875 17.394531 155.476562 C 16.636719 155.429688 15.589844 154.867188 14.667969 153.941406 C 13.332031 152.605469 12.757812 151.023438 13.375 150.398438 C 13.996094 149.773438 15.582031 150.351562 16.925781 151.6875 C 18.210938 152.964844 18.796875 154.484375 18.285156 155.15625 C 23.339844 160.113281 25.601562 168.230469 26.527344 172.855469 C 27.046875 167.082031 27.863281 161.386719 28.96875 155.789062 Z M 82.070312 49.300781 L 79.527344 51.570312 C 79.527344 51.570312 86.105469 51.761719 86.21875 48.964844 C 86.332031 46.164062 82.332031 48.292969 81.371094 49.933594 C 81.371094 49.933594 82.078125 47.84375 81.683594 46.613281 C 81.292969 45.382812 78.996094 45.382812 78.941406 46.949219 C 78.886719 48.515625 79.535156 51.570312 79.535156 51.570312 " fill-opacity="1" fill-rule="evenodd"/></g><g transform="matrix(1, 0, 0, 1, 27, 48)"><g clip-path="url(#265d4f6b6a)"><g fill="#ffffff" fill-opacity="1"><g transform="translate(5.543447, 218.897088)"><g><path d="M 201.75 15.875 C 199.0625 12.675781 196.835938 8.597656 195.078125 3.640625 C 193.316406 -1.304688 192.015625 -6.507812 191.171875 -11.96875 C 190.328125 -17.425781 189.90625 -22.503906 189.90625 -27.203125 C 189.90625 -36.609375 190.867188 -44.960938 192.796875 -52.265625 C 194.734375 -59.566406 197.460938 -66.488281 200.984375 -73.03125 C 204.515625 -79.582031 208.460938 -86.390625 212.828125 -93.453125 C 208.460938 -94.785156 204.015625 -95.117188 199.484375 -94.453125 C 194.953125 -93.785156 190.332031 -92.273438 185.625 -89.921875 L 183.609375 -87.40625 C 157.585938 -54.15625 133.578125 -29.890625 111.578125 -14.609375 C 89.578125 0.671875 68.082031 7.472656 47.09375 5.796875 C 30.976562 4.453125 18.640625 -0.25 10.078125 -8.3125 C 1.515625 -16.375 -2.765625 -25.523438 -2.765625 -35.765625 C -2.929688 -44.160156 -0.160156 -52.597656 5.546875 -61.078125 C 11.253906 -69.554688 20.066406 -77.15625 31.984375 -83.875 C 39.203125 -87.90625 46.96875 -91.175781 55.28125 -93.6875 C 63.59375 -96.207031 71.738281 -97.757812 79.71875 -98.34375 C 87.695312 -98.9375 94.789062 -98.226562 101 -96.21875 C 104.695312 -95.039062 107.085938 -93.273438 108.171875 -90.921875 C 109.265625 -88.578125 109.390625 -86.226562 108.546875 -83.875 C 107.710938 -81.519531 106.203125 -79.753906 104.015625 -78.578125 C 101.835938 -77.410156 99.238281 -77.410156 96.21875 -78.578125 C 83.957031 -83.453125 72.453125 -85.804688 61.703125 -85.640625 C 50.960938 -85.472656 41.394531 -83.117188 33 -78.578125 C 22.25 -72.867188 14.519531 -65.859375 9.8125 -57.546875 C 5.113281 -49.234375 3.1875 -41.300781 4.03125 -33.75 C 4.875 -27.03125 7.851562 -21.320312 12.96875 -16.625 C 18.09375 -11.925781 25.226562 -9.195312 34.375 -8.4375 C 43.53125 -7.675781 54.65625 -9.726562 67.75 -14.59375 C 80.851562 -19.46875 95.84375 -28.035156 112.71875 -40.296875 C 129.59375 -52.554688 148.1875 -69.515625 168.5 -91.171875 C 195.363281 -119.722656 219.25 -142.394531 240.15625 -159.1875 C 261.0625 -175.976562 277.644531 -185.800781 289.90625 -188.65625 C 294.4375 -189.664062 297.878906 -189.367188 300.234375 -187.765625 C 302.585938 -186.171875 303.804688 -184.03125 303.890625 -181.34375 C 303.972656 -178.65625 302.835938 -176.21875 300.484375 -174.03125 C 298.128906 -171.851562 294.601562 -170.847656 289.90625 -171.015625 C 288.394531 -171.015625 286.800781 -171.222656 285.125 -171.640625 C 283.445312 -172.066406 282.101562 -171.773438 281.09375 -170.765625 C 276.726562 -166.566406 271.898438 -160.519531 266.609375 -152.625 C 261.316406 -144.738281 255.691406 -135.925781 249.734375 -126.1875 C 243.773438 -116.445312 237.519531 -106.625 230.96875 -96.71875 C 224.925781 -87.144531 219.09375 -78.242188 213.46875 -70.015625 C 207.84375 -61.785156 203.390625 -54.0625 200.109375 -46.84375 C 196.835938 -39.625 195.707031 -32.738281 196.71875 -26.1875 C 197.550781 -21.15625 199.1875 -17.171875 201.625 -14.234375 C 204.0625 -11.296875 206.707031 -8.816406 209.5625 -6.796875 C 212.414062 -4.785156 214.929688 -2.6875 217.109375 -0.5 C 220.804688 3.019531 222.570312 6.414062 222.40625 9.6875 C 222.238281 12.96875 220.976562 15.570312 218.625 17.5 C 216.269531 19.4375 213.5 20.40625 210.3125 20.40625 C 207.125 20.40625 204.269531 18.894531 201.75 15.875 Z M 191.671875 -97.46875 C 199.734375 -99.820312 207.539062 -99.570312 215.09375 -96.71875 L 218.375 -101.75 C 226.4375 -114.34375 235.378906 -126.429688 245.203125 -138.015625 C 255.023438 -149.609375 264.550781 -160.191406 273.78125 -169.765625 C 270.425781 -172.785156 264.757812 -171.523438 256.78125 -165.984375 C 248.8125 -160.441406 239.242188 -151.707031 228.078125 -139.78125 C 216.910156 -127.863281 204.773438 -113.757812 191.671875 -97.46875 Z M 191.671875 -97.46875 "/></g></g></g><g fill="#ffffff" fill-opacity="1"><g transform="translate(35.506568, 201.413461)"><g><path d="M -4.28125 0 L -4.28125 -3.28125 C -0.757812 -4.445312 2.675781 -6.75 6.03125 -10.1875 C 9.394531 -13.632812 13.007812 -20.144531 16.875 -29.71875 L 66.5 -152.640625 C 68.007812 -156.671875 67.835938 -160.613281 65.984375 -164.46875 L 63.71875 -169.765625 L 82.609375 -178.328125 L 144.578125 -29.46875 C 148.441406 -20.0625 151.925781 -13.632812 155.03125 -10.1875 C 158.132812 -6.75 161.03125 -4.445312 163.71875 -3.28125 L 163.71875 0 L 124.671875 0 L 124.671875 -3.28125 C 128.535156 -4.445312 130.128906 -6.75 129.453125 -10.1875 C 128.785156 -13.632812 126.4375 -20.0625 122.40625 -29.46875 L 107.046875 -66.5 L 36.015625 -66.5 L 21.15625 -29.71875 C 14.78125 -13.769531 15.789062 -4.957031 24.1875 -3.28125 L 24.1875 0 Z M 37.53125 -70.265625 L 105.53125 -70.265625 L 71.03125 -153.140625 Z M 37.53125 -70.265625 "/></g></g></g></g></g></svg>