<svg xmlns="http://www.w3.org/2000/svg" xmlns:xlink="http://www.w3.org/1999/xlink" width="1200" zoomAndPan="magnify" viewBox="0 0 900 767.999994" height="1024" preserveAspectRatio="xMidYMid meet" version="1.0"><defs><g/><clipPath id="b8a5cac116"><path d="M 404 352.335938 L 497 352.335938 L 497 409 L 404 409 Z M 404 352.335938 " clip-rule="nonzero"/></clipPath><clipPath id="6b9be5657e"><path d="M 244 367 L 435 367 L 435 415.335938 L 244 415.335938 Z M 244 367 " clip-rule="nonzero"/></clipPath><clipPath id="320c948398"><path d="M 467 367 L 658 367 L 658 415.335938 L 467 415.335938 Z M 467 367 " clip-rule="nonzero"/></clipPath></defs><g clip-path="url(#b8a5cac116)"><path fill="#d89000" d="M 496.964844 369.996094 C 496.964844 371.675781 496.179688 373.21875 494.601562 374.625 C 493.03125 376.03125 490.75 377.074219 487.78125 377.78125 C 470.628906 381.90625 461.371094 383.984375 459.984375 383.984375 C 458.347656 383.984375 457.527344 383.589844 457.527344 382.8125 C 457.527344 382.1875 458.492188 381.335938 460.425781 380.238281 C 461.226562 379.773438 463.984375 378.34375 468.726562 375.976562 C 477.6875 371.445312 482.285156 369.140625 482.496094 369.066406 C 486.523438 367.234375 489.789062 366.316406 492.304688 366.316406 C 495.40625 366.316406 496.960938 367.542969 496.960938 370 Z M 482.371094 361.113281 C 482.371094 362.394531 481.304688 363.917969 479.167969 365.671875 C 477.988281 366.605469 475.054688 368.636719 470.363281 371.757812 C 461.433594 377.6875 456.335938 380.652344 455.085938 380.652344 C 454.449219 380.652344 453.945312 380.257812 453.566406 379.480469 L 454.324219 377.839844 C 456.839844 375.425781 459.546875 372.660156 462.433594 369.539062 C 465.535156 366.175781 467.359375 364.234375 467.90625 363.691406 C 472.382812 359.277344 476.265625 357.089844 479.539062 357.089844 C 481.421875 357.089844 482.363281 358.425781 482.363281 361.113281 Z M 455.265625 358.425781 C 455.265625 358.964844 454.96875 360.394531 454.390625 362.695312 C 453.628906 365.34375 452.878906 368 452.125 370.648438 C 451.25 373.683594 450.71875 376.207031 450.550781 378.195312 C 450.472656 379.324219 450.371094 380.03125 450.242188 380.304688 C 450.113281 380.695312 449.820312 380.882812 449.359375 380.882812 C 448.902344 380.882812 448.609375 380.710938 448.480469 380.359375 C 448.480469 380.320312 448.390625 379.816406 448.230469 378.839844 C 447.808594 376.453125 446.972656 372.601562 445.710938 367.257812 C 444.75 363.316406 444.269531 360.503906 444.269531 358.832031 C 444.269531 356.84375 444.824219 355.265625 445.941406 354.101562 C 447.046875 352.921875 448.503906 352.332031 450.308594 352.332031 C 451.734375 352.332031 452.921875 352.914062 453.859375 354.066406 C 454.804688 355.214844 455.273438 356.667969 455.273438 358.425781 Z M 457.214844 390.1875 C 457.214844 391.632812 456.585938 392.777344 455.328125 393.632812 C 454.40625 394.21875 453.507812 394.785156 452.625 395.332031 C 452 396.035156 451.6875 398.683594 451.6875 403.289062 C 451.6875 405.160156 451.621094 406.40625 451.492188 407.027344 C 451.285156 407.890625 450.847656 408.320312 450.175781 408.320312 C 449.585938 408.320312 449.226562 407.304688 449.105469 405.273438 C 448.8125 400.089844 448.605469 396.890625 448.476562 395.6875 C 447.089844 394.75 445.984375 393.660156 445.144531 392.40625 C 444.472656 391.355469 444.140625 390.496094 444.140625 389.835938 C 444.140625 388.273438 444.757812 386.898438 445.996094 385.710938 C 447.230469 384.523438 448.648438 383.925781 450.238281 383.925781 C 452.25 383.925781 453.914062 384.527344 455.238281 385.738281 C 456.558594 386.953125 457.21875 388.425781 457.21875 390.1875 Z M 445.453125 380.652344 C 445.453125 381.429688 445.011719 381.820312 444.136719 381.820312 C 443.757812 381.820312 442.398438 380.960938 440.046875 379.246094 C 437.242188 377.214844 433.964844 374.601562 430.242188 371.402344 C 427.769531 369.339844 425.316406 367.253906 422.882812 365.144531 C 421.125 363.472656 420.242188 361.882812 420.242188 360.40625 C 420.242188 359.273438 420.695312 358.28125 421.59375 357.421875 C 422.496094 356.574219 423.617188 356.132812 424.964844 356.132812 C 427.058594 356.132812 428.96875 357.007812 430.683594 358.765625 C 431.472656 359.546875 433.089844 361.71875 435.523438 365.257812 C 442.144531 374.816406 445.457031 379.945312 445.457031 380.648438 Z M 441.304688 383.921875 C 441.304688 384.738281 440.945312 385.15625 440.238281 385.15625 C 439.527344 385.15625 438.125 384.816406 436.027344 384.160156 C 433.464844 383.34375 430.886719 382.523438 428.285156 381.699219 C 419.195312 378.886719 413.28125 376.84375 410.5625 375.550781 C 406.535156 373.644531 404.523438 371.5 404.523438 369.125 C 404.523438 366.625 406.40625 365.371094 410.179688 365.371094 C 411.6875 365.371094 414.347656 366.464844 418.164062 368.648438 C 421.179688 370.398438 426.046875 373.523438 432.753906 378.011719 C 433.257812 378.320312 435.332031 379.652344 438.980469 381.988281 C 440.527344 382.960938 441.304688 383.605469 441.304688 383.917969 Z M 441.304688 383.921875 " fill-opacity="1" fill-rule="nonzero"/></g><g clip-path="url(#6b9be5657e)"><path fill="#d89000" d="M 381.839844 390.996094 C 381.195312 389.691406 380.289062 388.453125 379.183594 387.3125 C 387.195312 384.550781 396.261719 383.800781 404.648438 384.890625 C 405.132812 384.953125 405.640625 385.039062 406.164062 385.140625 C 397.757812 385.53125 389.601562 387.75 381.839844 391 Z M 334.582031 411.746094 C 327.839844 412.777344 321.667969 411.195312 316.675781 407.917969 C 324.492188 409.195312 333.207031 408.136719 340 406.320312 C 351.878906 403.140625 361.710938 395.269531 372.707031 389.980469 C 373.570312 391.453125 374 393.054688 373.835938 394.769531 C 371.585938 395.9375 369.371094 397.152344 367.210938 398.441406 C 357 404.546875 346.75 409.894531 334.582031 411.746094 Z M 365.148438 383.929688 C 365.480469 383.996094 365.824219 384.03125 366.167969 384.046875 C 366.929688 384.488281 367.65625 384.957031 368.347656 385.453125 C 357.34375 389.863281 347.90625 397.132812 336.960938 401.769531 C 329.40625 404.96875 318.695312 406.457031 311.675781 401.644531 C 328.875 392.714844 345.332031 380.015625 365.148438 383.925781 Z M 283.09375 406.417969 C 276.34375 407.449219 270.175781 405.875 265.183594 402.601562 C 273 403.882812 281.710938 402.820312 288.503906 401 C 292.179688 400.019531 295.660156 398.574219 299.042969 396.90625 C 299.125 397.042969 299.199219 397.179688 299.289062 397.3125 C 299.898438 398.558594 300.601562 399.707031 301.335938 400.808594 C 295.609375 403.40625 289.632812 405.421875 283.089844 406.417969 Z M 326.449219 382.40625 C 334.75 379.289062 344.335938 378.425781 353.15625 379.574219 C 353.632812 379.640625 354.140625 379.71875 354.660156 379.820312 C 340.78125 380.46875 327.550781 386.058594 315.71875 393.117188 C 313.082031 394.691406 310.441406 396.214844 307.765625 397.644531 C 306.875 396.289062 306.226562 394.804688 305.808594 393.261719 C 312.566406 389.390625 319.167969 385.140625 326.449219 382.40625 Z M 415.195312 383.832031 C 402.433594 379.777344 388.75 379.847656 375.78125 383.03125 C 375.292969 383.148438 374.820312 383.292969 374.339844 383.425781 C 370.941406 381.253906 367.0625 379.574219 363.703125 378.507812 C 350.941406 374.460938 337.253906 374.519531 324.285156 377.707031 C 317.496094 379.375 311.445312 382.386719 305.546875 385.6875 C 306.128906 382.675781 307.503906 379.820312 309.644531 377.59375 C 310.554688 376.65625 311.183594 373.707031 307.820312 372.792969 C 305.292969 372.121094 301.808594 374.328125 300.921875 375.25 C 296.515625 379.824219 295.332031 385.5 296.539062 390.835938 C 292.941406 392.875 289.300781 394.820312 285.46875 396.441406 C 277.363281 399.882812 265.625 401.355469 258.714844 395.191406 C 252.066406 389.265625 252.261719 378.390625 258.152344 372.273438 C 259.058594 371.328125 259.691406 368.378906 256.328125 367.472656 C 253.804688 366.792969 250.316406 369.007812 249.425781 369.929688 C 243.164062 376.429688 243.394531 385.15625 247.785156 391.984375 C 255.800781 408.253906 275.132812 412.367188 292.761719 408.859375 C 296.839844 408.046875 300.800781 406.675781 304.707031 404.988281 C 314.277344 414.804688 329.828125 417.046875 344.253906 414.175781 C 354.007812 412.238281 363.136719 407.132812 372.253906 401.984375 C 372.648438 402.871094 373.402344 403.695312 374.71875 404.167969 C 377.351562 405.125 380.402344 402.296875 381.03125 401.304688 C 382.164062 399.519531 382.699219 397.828125 382.847656 396.199219 C 393.476562 390.757812 404.417969 386.84375 416.636719 389.257812 C 416.972656 389.324219 417.316406 389.351562 417.664062 389.375 C 423.617188 392.816406 427.796875 397.988281 423.792969 404.277344 C 423.015625 405.519531 423.203125 408.40625 426.207031 409.492188 C 428.839844 410.4375 431.894531 407.625 432.519531 406.621094 C 439.679688 395.367188 425.121094 386.984375 415.191406 383.828125 Z M 415.195312 383.832031 " fill-opacity="1" fill-rule="nonzero"/></g><g clip-path="url(#320c948398)"><path fill="#d89000" d="M 619 406.417969 C 612.457031 405.421875 606.480469 403.402344 600.757812 400.804688 C 601.496094 399.703125 602.199219 398.550781 602.8125 397.308594 C 602.894531 397.171875 602.96875 397.039062 603.050781 396.910156 C 606.433594 398.574219 609.914062 400.019531 613.59375 401 C 620.382812 402.816406 629.097656 403.878906 636.914062 402.601562 C 631.921875 405.875 625.753906 407.445312 619.003906 406.417969 Z M 565.132812 401.769531 C 554.1875 397.132812 544.753906 389.863281 533.746094 385.453125 C 534.4375 384.957031 535.167969 384.488281 535.925781 384.046875 C 536.269531 384.027344 536.613281 383.996094 536.949219 383.929688 C 556.761719 380.015625 573.21875 392.714844 590.417969 401.648438 C 583.402344 406.457031 572.6875 404.96875 565.132812 401.769531 Z M 567.507812 411.746094 C 555.339844 409.898438 545.097656 404.546875 534.878906 398.445312 C 532.726562 397.15625 530.507812 395.9375 528.261719 394.773438 C 528.097656 393.058594 528.527344 391.457031 529.386719 389.984375 C 540.386719 395.273438 550.21875 403.144531 562.101562 406.324219 C 568.886719 408.140625 577.605469 409.199219 585.421875 407.921875 C 580.429688 411.199219 574.257812 412.777344 567.507812 411.75 Z M 497.445312 384.890625 C 505.832031 383.800781 514.902344 384.550781 522.910156 387.3125 C 521.804688 388.457031 520.902344 389.691406 520.253906 390.992188 C 512.496094 387.75 504.335938 385.523438 495.933594 385.132812 C 496.453125 385.039062 496.964844 384.953125 497.445312 384.890625 Z M 548.9375 379.570312 C 557.761719 378.421875 567.339844 379.289062 575.648438 382.402344 C 582.925781 385.136719 589.53125 389.386719 596.28125 393.257812 C 595.867188 394.808594 595.21875 396.285156 594.328125 397.640625 C 591.65625 396.214844 589.015625 394.691406 586.375 393.117188 C 574.546875 386.054688 561.316406 380.464844 547.433594 379.816406 C 547.949219 379.714844 548.460938 379.636719 548.9375 379.570312 Z M 652.667969 369.925781 C 651.78125 369.003906 648.292969 366.792969 645.769531 367.46875 C 642.402344 368.375 643.03125 371.328125 643.9375 372.269531 C 649.828125 378.386719 650.023438 389.261719 643.375 395.1875 C 636.46875 401.355469 624.726562 399.882812 616.625 396.441406 C 612.792969 394.816406 609.144531 392.871094 605.550781 390.835938 C 606.761719 385.492188 605.574219 379.824219 601.171875 375.246094 C 600.28125 374.324219 596.792969 372.117188 594.269531 372.789062 C 590.90625 373.703125 591.539062 376.652344 592.441406 377.589844 C 594.585938 379.816406 595.960938 382.675781 596.542969 385.6875 C 590.648438 382.386719 584.597656 379.375 577.804688 377.703125 C 564.832031 374.519531 551.152344 374.457031 538.390625 378.507812 C 535.03125 379.570312 531.152344 381.253906 527.753906 383.421875 C 527.273438 383.292969 526.796875 383.144531 526.3125 383.027344 C 513.34375 379.84375 499.65625 379.773438 486.898438 383.828125 C 476.964844 386.984375 462.410156 395.363281 469.566406 406.621094 C 470.195312 407.625 473.246094 410.4375 475.882812 409.492188 C 478.882812 408.402344 479.078125 405.519531 478.292969 404.277344 C 474.289062 397.988281 478.472656 392.816406 484.429688 389.375 C 484.777344 389.351562 485.121094 389.320312 485.457031 389.257812 C 497.671875 386.84375 508.617188 390.753906 519.242188 396.199219 C 519.394531 397.824219 519.929688 399.519531 521.0625 401.304688 C 521.691406 402.292969 524.742188 405.121094 527.375 404.167969 C 528.691406 403.695312 529.441406 402.867188 529.835938 401.984375 C 538.957031 407.136719 548.082031 412.238281 557.835938 414.175781 C 572.261719 417.046875 587.816406 414.804688 597.386719 404.988281 C 601.289062 406.679688 605.253906 408.050781 609.332031 408.859375 C 626.960938 412.367188 646.289062 408.25 654.304688 391.984375 C 658.695312 385.160156 658.925781 376.429688 652.664062 369.929688 Z M 652.667969 369.925781 " fill-opacity="1" fill-rule="nonzero"/></g><path fill="#d89000" d="M 239.363281 395.691406 C 239.363281 395.691406 31.839844 393.273438 24.035156 393.273438 C 20.78125 392.867188 21.171875 391.300781 24.035156 391.054688 C 31.835938 391.054688 236.757812 388.632812 236.757812 388.632812 C 237.734375 388.578125 238.90625 389.308594 239.621094 391.355469 C 240.335938 393.410156 241.050781 395.726562 239.363281 395.6875 Z M 239.363281 395.691406 " fill-opacity="1" fill-rule="nonzero"/><path fill="#d89000" d="M 660.65625 395.691406 C 660.65625 395.691406 868.175781 393.273438 875.976562 393.273438 C 879.230469 392.867188 878.839844 391.300781 875.976562 391.054688 C 868.175781 391.054688 663.253906 388.632812 663.253906 388.632812 C 662.28125 388.578125 661.105469 389.308594 660.394531 391.355469 C 659.675781 393.410156 658.964844 395.726562 660.65625 395.6875 Z M 660.65625 395.691406 " fill-opacity="1" fill-rule="nonzero"/><g fill="#ffffff" fill-opacity="1"><g transform="translate(449.879453, 485.37758)"><g><path d="M 3.671875 0.140625 C 3.160156 0.140625 2.753906 -0.00390625 2.453125 -0.296875 C 2.148438 -0.585938 2 -0.976562 2 -1.46875 C 2 -1.9375 2.148438 -2.320312 2.453125 -2.625 C 2.753906 -2.9375 3.160156 -3.09375 3.671875 -3.09375 C 4.203125 -3.09375 4.617188 -2.945312 4.921875 -2.65625 C 5.222656 -2.363281 5.375 -1.972656 5.375 -1.484375 C 5.375 -1.003906 5.21875 -0.613281 4.90625 -0.3125 C 4.601562 -0.0078125 4.191406 0.140625 3.671875 0.140625 Z M 3.671875 0.140625 "/></g></g></g></svg>